<?xml version="1.0" standalone="no"?>
<!DOCTYPE svg PUBLIC "-//W3C//DTD SVG 20010904//EN"
 "http://www.w3.org/TR/2001/REC-SVG-20010904/DTD/svg10.dtd">
<svg version="1.0" xmlns="http://www.w3.org/2000/svg"
 width="1349.000000pt" height="901.000000pt" viewBox="0 0 1349.000000 901.000000"
 preserveAspectRatio="xMidYMid meet">

<g transform="translate(0.000000,901.000000) scale(0.100000,-0.100000)"
fill="#000000" stroke="none">
<path d="M1095 8993 c-12 -34 -85 -83 -123 -83 -30 0 -43 -8 -80 -47 -33 -36
-51 -48 -75 -48 -18 -1 -44 -2 -59 -3 -18 -1 -57 -31 -129 -99 -134 -128 -179
-185 -179 -228 0 -23 -13 -49 -45 -91 l-45 -57 0 -169 c0 -184 5 -167 -66
-227 l-29 -24 0 -257 0 -256 27 -32 c26 -31 27 -33 12 -74 -8 -23 -20 -48 -26
-55 -7 -9 -15 -84 -20 -196 -4 -100 -13 -213 -18 -252 -6 -38 -18 -196 -26
-350 -8 -154 -20 -302 -26 -330 -8 -36 -12 -706 -15 -2397 -3 -2134 -2 -2350
12 -2390 9 -23 23 -71 31 -106 7 -34 21 -76 29 -92 12 -22 15 -66 15 -192 0
-153 2 -166 25 -216 14 -30 25 -61 25 -69 0 -9 10 -32 22 -51 18 -30 23 -56
28 -153 5 -107 7 -120 30 -146 47 -53 83 -85 107 -94 31 -12 877 -11 963 1 36
5 106 16 155 24 167 29 290 48 400 62 61 8 128 20 150 28 22 8 70 17 107 20
36 4 101 15 144 26 55 14 110 20 192 20 110 0 116 -1 138 -25 38 -41 144 -29
144 16 0 5 81 9 193 9 181 1 262 7 367 29 25 5 106 14 180 21 74 6 164 17 199
26 55 12 488 14 3250 14 l3186 0 14 -20 c11 -16 24 -20 71 -20 49 0 60 3 72
23 15 22 18 22 204 20 124 -2 215 -8 264 -18 41 -9 134 -22 205 -30 72 -8 152
-19 179 -24 27 -6 98 -16 158 -21 61 -6 119 -15 129 -21 10 -5 67 -16 127 -24
59 -8 121 -20 138 -26 19 -9 122 -15 309 -18 235 -5 285 -9 306 -22 13 -9 48
-21 77 -28 29 -6 63 -17 75 -25 12 -7 40 -17 62 -21 22 -4 54 -15 71 -26 17
-10 38 -19 45 -19 8 0 37 -11 64 -25 47 -23 60 -24 221 -25 155 0 174 2 195
19 l24 19 0 1474 0 1473 -22 65 c-12 36 -24 91 -28 123 -4 32 -13 73 -20 91
-7 17 -19 69 -25 114 -6 45 -17 99 -24 120 -7 20 -16 64 -20 97 -4 33 -16 92
-26 130 -10 39 -21 98 -25 133 -3 34 -12 80 -20 101 -7 21 -16 69 -20 107 -3
38 -15 104 -26 147 -11 44 -24 131 -29 195 -5 65 -13 138 -19 164 -6 26 -15
96 -20 156 -6 60 -19 144 -30 187 -12 44 -21 95 -21 115 0 20 -9 70 -19 111
-11 41 -22 101 -26 134 -4 33 -15 87 -25 120 -10 33 -21 84 -25 114 -3 30 -13
70 -22 90 -14 29 -18 87 -23 296 -5 205 -10 267 -22 295 -9 19 -19 62 -23 95
-4 33 -15 85 -25 115 -10 30 -21 87 -25 125 -4 39 -13 95 -21 126 -8 31 -19
103 -25 160 -5 57 -16 129 -24 159 -8 30 -17 81 -21 113 -4 32 -13 65 -20 72
-19 18 -18 41 1 49 13 5 15 20 13 73 l-3 68 -40 5 -40 5 -5 245 c-5 222 -7
249 -25 275 -15 24 -20 54 -25 151 l-5 121 -42 46 c-35 38 -43 54 -43 86 0 31
-9 49 -46 95 -45 54 -47 60 -48 122 -1 59 -4 67 -31 89 -20 16 -43 24 -69 25
-34 0 -47 8 -120 78 -44 44 -92 86 -106 95 -23 16 -311 17 -3987 17 -3899 0
-3964 0 -4020 19 -32 11 -80 23 -108 26 -27 4 -79 15 -115 25 -61 17 -147 19
-1327 24 -1202 6 -1262 6 -1268 -11z m770 -63 c21 -17 44 -38 51 -48 12 -16
69 -17 871 -22 755 -4 863 -7 898 -21 22 -9 65 -19 96 -22 30 -4 82 -16 115
-28 l59 -22 2084 1 c1986 1 2085 2 2103 19 18 16 46 18 318 18 284 0 299 -1
320 -20 22 -20 36 -20 660 -20 351 0 642 -3 646 -8 15 -15 3 -120 -17 -145
-10 -14 -19 -33 -19 -43 0 -21 -28 -39 -50 -31 -8 3 -26 13 -39 23 -28 23 -84
25 -101 4 -15 -19 -4 -53 29 -85 14 -14 38 -41 54 -59 21 -26 32 -32 51 -27
57 14 69 -53 22 -117 -19 -26 -21 -45 -25 -185 -3 -135 -6 -160 -22 -181 -11
-13 -19 -34 -19 -47 0 -31 47 -84 74 -84 42 0 60 34 67 126 4 62 10 88 24 104
16 17 21 42 25 120 4 75 9 103 23 118 12 13 19 39 21 76 1 31 6 59 10 63 3 4
65 6 135 4 113 -2 130 0 139 15 10 18 4 104 -8 118 -5 4 -46 8 -92 7 -119 -1
-168 7 -168 29 0 10 7 23 15 30 11 9 15 33 15 84 0 43 5 77 12 84 8 8 64 12
187 12 152 0 177 2 194 18 28 25 160 24 210 -3 l36 -19 45 22 c45 23 46 23
483 20 l438 -3 40 -26 c37 -24 62 -50 156 -161 17 -21 37 -38 45 -38 7 0 19
-10 25 -22 7 -13 16 -26 21 -29 13 -9 78 -112 78 -125 0 -6 9 -22 19 -36 11
-13 23 -42 26 -64 4 -21 14 -46 22 -55 7 -9 20 -59 28 -110 9 -52 20 -114 25
-139 6 -25 11 -155 13 -290 l2 -245 -171 -5 c-145 -4 -175 -8 -191 -22 -18
-16 -50 -18 -357 -18 -323 0 -339 1 -363 20 -23 18 -41 20 -198 20 -157 0
-175 -2 -198 -20 -22 -17 -40 -20 -135 -20 -94 0 -111 3 -126 19 -9 10 -34 21
-55 25 -21 3 -44 12 -50 20 -7 8 -31 18 -54 21 -23 4 -59 16 -79 26 -21 11
-47 19 -58 19 -11 0 -47 11 -80 25 l-59 25 -351 0 c-319 0 -355 2 -405 19 -29
10 -73 22 -97 26 -24 3 -69 15 -101 26 -53 17 -89 19 -455 19 -439 0 -452 2
-413 52 12 14 21 39 21 54 0 15 10 38 22 51 27 29 27 71 -1 109 -19 26 -22 40
-19 114 l3 84 31 8 c18 4 48 26 68 48 34 38 36 44 36 109 0 65 -2 71 -31 95
-28 24 -37 26 -133 26 l-102 0 -77 -72 -77 -73 0 -86 c0 -70 4 -91 19 -111 11
-13 23 -37 27 -53 4 -15 26 -50 50 -77 40 -44 44 -54 44 -101 0 -68 -44 -163
-79 -173 -32 -9 -110 5 -341 63 -36 8 -94 19 -130 24 -36 4 -511 8 -1057 8
-546 -1 -997 2 -1003 6 -6 4 -10 83 -10 222 l0 216 -29 46 c-17 25 -63 73
-103 106 l-73 60 -107 3 c-125 5 -154 0 -163 -28 -5 -15 -15 -20 -39 -20 -25
0 -40 -9 -65 -37 l-33 -37 4 -112 3 -113 43 -43 42 -44 0 -112 c0 -100 -2
-112 -17 -112 -10 0 -830 -1 -1823 -2 l-1805 -3 -36 -22 c-20 -13 -46 -23 -58
-23 -12 0 -48 -11 -81 -25 -56 -24 -70 -25 -241 -25 -160 0 -185 -2 -213 -19
-17 -10 -42 -22 -56 -26 -14 -4 -36 -16 -49 -26 -14 -11 -40 -19 -63 -19 -33
0 -40 4 -49 28 -15 39 -107 130 -146 143 -17 5 -35 18 -38 28 -9 29 14 67 48
82 19 8 34 24 38 39 4 14 7 105 8 202 1 141 4 179 15 185 8 4 28 25 45 47 23
29 31 49 31 80 0 39 6 47 100 141 l100 100 98 5 97 5 20 39 c13 26 30 42 47
47 15 4 46 25 69 47 23 23 55 44 71 48 22 4 34 16 45 42 8 21 20 40 27 44 6 4
135 8 287 8 l276 0 38 -30z m3515 -665 l19 -31 -34 -37 c-31 -34 -38 -37 -89
-37 -50 0 -60 4 -96 36 -22 20 -40 40 -40 44 0 4 9 19 21 34 20 26 24 27 110
24 88 -3 90 -4 109 -33z m80 -361 c0 -66 -4 -105 -11 -110 -22 -13 -211 -6
-220 8 -14 21 -11 192 3 206 7 7 43 12 93 12 44 0 87 5 95 10 29 18 40 -18 40
-126z m-2822 -266 c9 -9 12 -797 12 -3484 l0 -3471 21 -27 c27 -34 81 -36 103
-4 14 20 16 369 16 3498 0 2690 3 3479 12 3488 9 9 269 12 1109 12 603 0 1111
-3 1128 -6 34 -7 40 -24 16 -44 -20 -17 -19 -37 5 -67 20 -26 20 -41 20 -3124
0 -1944 4 -3107 10 -3123 20 -53 77 -68 115 -30 13 14 15 369 15 3124 l0 3109
21 12 c12 6 57 10 103 9 44 -2 91 -2 102 -1 27 1 104 77 104 102 0 10 9 23 20
29 14 7 341 10 1072 8 984 -3 1056 -4 1098 -21 24 -10 75 -22 113 -27 37 -6
94 -19 127 -30 33 -11 77 -20 99 -20 35 0 41 -3 47 -26 12 -49 -2 -177 -24
-221 -12 -23 -22 -53 -22 -65 0 -13 -10 -41 -22 -63 -20 -36 -23 -57 -26 -195
-3 -131 -6 -158 -21 -175 -10 -11 -30 -41 -45 -66 -25 -45 -26 -49 -26 -229
l0 -183 -45 -68 -45 -68 0 -2317 0 -2316 25 -32 c14 -17 34 -40 45 -51 18 -19
20 -34 20 -177 l0 -156 31 -26 c35 -30 62 -28 92 6 15 18 17 43 17 205 l0 184
-45 48 -45 48 0 2275 c0 2262 0 2275 20 2293 11 10 20 23 20 28 0 6 10 21 22
35 22 22 23 33 28 225 5 200 5 202 32 242 15 22 33 47 40 55 9 10 15 69 18
185 4 140 8 176 23 198 9 14 22 50 28 79 7 29 19 63 27 76 10 15 17 60 21 135
l6 112 425 3 c399 2 429 1 485 -17 33 -11 80 -23 105 -26 25 -4 61 -14 80 -23
28 -13 86 -17 305 -22 l270 -5 5 -630 c3 -346 6 -631 8 -631 1 -1 17 -5 36 -8
30 -6 34 -11 40 -46 8 -53 23 -59 41 -16 13 30 15 133 15 674 0 483 3 641 12
650 18 18 47 14 103 -13 28 -14 60 -25 73 -25 12 0 41 -9 63 -20 21 -11 70
-25 107 -30 37 -6 90 -15 117 -22 35 -8 309 -13 929 -17 l879 -6 25 -45 c28
-52 58 -175 73 -305 6 -49 19 -135 29 -190 11 -55 24 -136 29 -180 6 -44 16
-98 24 -120 8 -22 18 -67 22 -100 4 -33 14 -76 23 -95 12 -28 17 -89 22 -295
5 -204 10 -268 22 -295 9 -19 19 -60 23 -90 3 -30 15 -82 25 -115 10 -33 22
-85 25 -115 3 -30 13 -79 21 -108 8 -28 19 -88 24 -131 6 -44 19 -114 30 -157
11 -42 20 -98 20 -123 0 -25 9 -100 19 -166 11 -66 22 -164 26 -218 3 -54 13
-117 21 -139 8 -23 19 -84 25 -135 5 -52 16 -111 24 -132 7 -21 16 -69 20
-107 4 -38 15 -100 25 -139 10 -38 22 -97 26 -130 4 -33 13 -77 20 -97 7 -21
18 -74 24 -119 6 -45 18 -98 25 -118 8 -20 19 -68 24 -107 6 -39 17 -90 26
-113 13 -37 15 -223 15 -1452 0 -776 -2 -1414 -5 -1420 -4 -5 -53 -9 -111 -9
-93 0 -110 3 -152 25 -26 14 -55 25 -66 25 -10 0 -33 8 -50 19 -17 10 -49 22
-71 26 -22 3 -49 12 -61 20 -11 7 -45 20 -75 28 -29 8 -72 22 -94 31 -32 12
-88 15 -284 16 -208 0 -255 3 -326 20 -45 11 -115 24 -156 29 -41 4 -103 16
-139 24 -36 9 -116 21 -177 27 -62 6 -123 14 -136 19 -13 5 -83 14 -157 21
-74 7 -144 16 -156 20 -42 16 -229 31 -351 29 -71 -2 -127 1 -133 7 -6 6 -10
259 -12 674 -3 603 -5 667 -20 690 -9 14 -20 43 -24 65 -4 22 -15 56 -24 75
-10 19 -21 51 -25 70 -4 19 -16 49 -26 66 -10 17 -19 40 -19 50 0 11 -10 35
-22 54 -21 33 -23 49 -29 305 -4 157 -11 285 -18 305 -6 19 -16 73 -22 119 -5
46 -19 103 -29 127 -11 24 -20 54 -20 67 0 13 -11 56 -25 95 l-25 72 0 1255
c0 1086 -2 1260 -15 1291 -15 37 -35 38 -35 2 0 -12 -19 -40 -45 -65 l-45 -43
0 -1237 c1 -1096 3 -1243 16 -1278 9 -22 22 -69 30 -104 8 -35 21 -75 29 -90
7 -15 19 -68 26 -117 6 -49 16 -100 22 -114 6 -14 13 -147 17 -305 6 -262 8
-283 28 -320 12 -21 22 -46 22 -53 0 -8 9 -29 19 -46 10 -17 22 -47 26 -66 4
-19 16 -51 26 -70 11 -19 19 -43 19 -53 0 -10 11 -44 25 -77 l25 -59 0 -640
c0 -383 -4 -642 -9 -646 -5 -3 -1213 -6 -2683 -6 -2715 -1 -3693 -8 -3783 -27
-27 -6 -108 -16 -180 -22 -71 -6 -161 -18 -200 -27 -56 -13 -164 -17 -535 -23
-385 -5 -472 -9 -505 -22 -22 -8 -71 -18 -110 -22 -38 -4 -90 -13 -115 -21
-25 -8 -94 -21 -155 -30 -111 -15 -226 -33 -390 -60 -185 -32 -229 -34 -633
-34 -350 -1 -417 1 -442 14 -35 18 -38 29 -43 150 -3 68 -9 100 -25 130 -12
22 -22 47 -22 55 0 8 -12 38 -25 65 -23 47 -25 60 -25 213 0 139 -3 168 -19
200 -10 20 -22 58 -25 85 -4 26 -16 67 -27 92 -19 43 -19 79 -16 2382 3 2103
4 2351 19 2463 9 69 22 226 27 350 6 124 15 254 21 289 6 35 15 132 19 215 7
123 13 158 30 191 12 21 21 46 21 55 0 8 9 29 20 47 10 18 23 47 28 65 11 45
42 58 138 58 64 0 86 4 105 19 13 10 35 22 49 26 14 4 36 16 49 26 21 17 43
19 203 19 143 0 186 3 216 16 20 9 64 25 97 34 33 10 78 25 100 34 34 13 121
15 605 16 427 0 569 -3 578 -12z"/>
<path d="M3706 8740 c-47 -30 -51 -47 -16 -65 45 -23 39 -45 -13 -45 -36 0
-47 -5 -65 -30 -22 -29 -32 -93 -18 -107 4 -4 21 -7 39 -8 25 0 32 -4 32 -20
0 -16 -8 -21 -40 -25 l-40 -5 -1 -47 c0 -32 -7 -55 -20 -69 -15 -17 -20 -41
-24 -118 -4 -80 -9 -102 -28 -125 -12 -16 -22 -40 -22 -53 0 -32 26 -80 49
-93 34 -18 87 -12 118 13 15 13 43 29 61 35 18 6 40 18 48 27 12 12 40 15 127
15 86 0 118 4 135 16 30 21 29 64 -4 95 -24 23 -34 24 -182 29 l-157 5 -3 39
c-3 29 2 44 19 62 19 20 23 38 27 111 5 85 4 87 -23 109 l-28 22 27 23 c18 16
26 32 26 55 0 28 4 33 30 39 32 7 60 38 60 68 0 22 -47 67 -69 66 -9 0 -29 -9
-45 -19z"/>
<path d="M7819 8540 c-24 -22 -47 -40 -51 -40 -4 0 -15 -17 -23 -37 -9 -21
-31 -54 -49 -73 -28 -29 -35 -44 -38 -91 -3 -38 -12 -65 -26 -84 -20 -26 -22
-39 -22 -176 0 -140 1 -149 23 -175 27 -31 68 -35 97 -9 18 16 20 32 20 155
l0 136 33 32 c30 29 38 32 99 32 65 0 66 0 107 45 l41 45 0 93 0 94 -50 47
c-65 61 -99 62 -161 6z m67 -161 c10 -17 -13 -36 -27 -22 -12 12 -4 33 11 33
5 0 12 -5 16 -11z"/>
<path d="M4247 8391 l-52 -50 0 -183 0 -183 34 -43 c56 -69 125 -69 147 -2 10
32 16 36 58 42 25 3 58 16 72 27 18 14 41 21 70 21 71 0 84 21 84 134 0 71 -4
97 -15 106 -8 7 -20 30 -27 52 -14 48 -59 88 -100 88 -16 0 -41 9 -55 20 -20
16 -41 20 -95 20 l-69 0 -52 -49z m192 -110 c21 -18 61 -86 61 -103 0 -4 -12
-11 -27 -14 -16 -4 -41 -18 -56 -31 -31 -25 -57 -29 -75 -11 -16 16 -16 150 0
166 18 18 72 14 97 -7z"/>
<path d="M5980 8423 c0 -9 7 -24 16 -34 12 -13 17 -43 20 -101 2 -55 8 -86 17
-93 19 -14 37 -50 37 -73 0 -10 9 -27 19 -36 11 -10 22 -29 26 -43 7 -29 92
-135 141 -176 27 -23 42 -28 76 -25 40 3 44 5 56 43 8 26 37 64 80 107 l66 68
-2 72 c-1 48 -7 77 -17 89 -9 9 -20 33 -26 53 -7 25 -26 49 -65 81 l-56 45
-140 0 c-125 0 -143 2 -165 20 -32 25 -83 27 -83 3z m251 -153 c24 -11 59 -20
77 -20 26 0 34 -5 42 -27 6 -16 15 -36 20 -45 16 -28 12 -44 -20 -78 -38 -41
-64 -36 -108 21 -23 31 -32 53 -32 81 0 26 -6 44 -20 55 -21 18 -26 33 -11 33
5 0 28 -9 52 -20z"/>
<path d="M9290 8325 c-19 -14 -42 -25 -51 -25 -22 0 -79 -47 -79 -66 0 -7 -10
-19 -22 -25 -46 -23 -78 -68 -78 -108 0 -23 -8 -48 -20 -64 -23 -29 -30 -130
-11 -165 16 -29 46 -44 75 -36 35 8 45 24 53 80 3 27 14 60 25 73 10 13 18 32
18 43 0 23 97 128 118 128 9 0 33 12 54 26 31 22 40 24 53 14 8 -7 15 -17 15
-22 0 -6 9 -22 19 -37 11 -15 23 -40 27 -57 4 -16 15 -40 26 -53 13 -17 18
-41 18 -83 0 -52 3 -63 29 -89 36 -35 54 -36 86 -4 20 19 25 36 27 82 4 105 1
123 -21 144 -15 14 -21 32 -21 64 0 29 -6 51 -17 63 -10 10 -31 33 -46 51 -15
19 -47 46 -70 62 -35 24 -52 29 -108 29 -54 0 -71 -4 -99 -25z"/>
<path d="M8767 8313 c-14 -13 -7 -43 12 -53 37 -19 60 4 45 44 -6 16 -45 22
-57 9z"/>
<path d="M8622 8127 c-12 -13 -25 -37 -28 -54 -3 -18 -15 -40 -25 -49 -16 -14
-19 -32 -19 -104 0 -78 2 -89 23 -108 13 -12 35 -22 48 -22 42 0 60 21 68 83
4 32 16 66 26 77 28 31 23 145 -7 177 -27 29 -59 29 -86 0z"/>
<path d="M3990 7190 c-35 -34 -35 -33 -14 -65 16 -24 15 -25 -11 -35 -14 -5
-61 -10 -104 -10 -64 0 -81 -3 -95 -19 -9 -10 -31 -21 -48 -25 -38 -8 -78 -44
-78 -73 0 -13 9 -32 20 -43 28 -28 159 -29 186 -2 14 13 41 18 121 23 87 5
107 9 126 27 21 20 34 22 124 22 89 0 104 3 129 23 24 19 44 23 135 27 83 4
111 9 126 23 13 11 36 17 71 17 54 0 102 14 114 33 17 27 8 63 -22 85 -29 22
-35 22 -389 22 l-360 0 -31 -30z"/>
<path d="M6602 6983 c-13 -3 -43 -24 -68 -47 l-44 -43 0 -90 c0 -84 2 -92 26
-117 33 -33 54 -33 92 -1 21 18 42 25 71 25 31 0 48 6 66 25 23 22 25 32 25
110 0 82 -1 88 -29 116 -30 29 -68 35 -139 22z"/>
<path d="M8995 6910 c-44 -39 -88 -80 -97 -92 -25 -28 -22 -60 5 -86 22 -20
33 -22 163 -22 175 0 177 1 182 99 5 86 -10 115 -66 130 -21 6 -46 17 -57 25
-11 9 -27 16 -35 16 -9 0 -52 -32 -95 -70z"/>
<path d="M1372 6913 c-23 -22 -31 -39 -35 -75 -2 -26 -14 -58 -26 -74 -42 -54
-11 -142 51 -145 74 -4 98 7 113 52 8 24 20 35 41 41 43 11 54 34 54 110 0 60
-3 70 -27 93 -23 21 -38 25 -84 25 -47 0 -61 -4 -87 -27z"/>
<path d="M1514 5798 c-24 -19 -43 -24 -119 -26 -81 -3 -93 -6 -117 -30 -38
-35 -35 -55 13 -107 47 -51 92 -60 123 -26 11 12 35 20 72 23 37 3 61 11 77
26 23 21 31 22 273 22 280 0 294 3 294 63 0 25 -7 37 -33 55 -32 21 -40 22
-294 22 -255 0 -261 0 -289 -22z"/>
<path d="M3101 5786 c-35 -36 -35 -43 2 -83 l20 -23 609 0 c595 0 608 0 628
20 29 29 25 64 -11 94 l-31 26 -592 0 -592 0 -33 -34z"/>
<path d="M6334 5798 c-27 -22 -41 -23 -215 -28 l-187 -5 -26 -28 c-33 -35 -33
-42 4 -78 l30 -30 209 3 c201 3 210 4 233 26 22 20 34 22 128 22 94 0 106 -2
128 -22 19 -18 35 -23 81 -23 69 0 91 15 91 60 0 38 -9 47 -97 91 -66 34 -68
34 -209 34 -131 0 -143 -2 -170 -22z"/>
<path d="M11394 5518 c-28 -23 -33 -23 -379 -26 l-350 -3 -27 -26 c-35 -33
-35 -57 -3 -89 l25 -25 379 3 c378 3 380 3 403 26 24 22 29 22 276 22 239 0
253 1 272 20 29 29 25 64 -11 94 l-31 26 -262 0 c-258 0 -264 0 -292 -22z"/>
<path d="M1514 4628 c-26 -21 -41 -23 -164 -26 -106 -3 -139 -7 -153 -19 -9
-9 -43 -20 -75 -24 -46 -6 -62 -14 -84 -38 -29 -32 -28 -50 0 -83 13 -15 32
-18 117 -18 88 0 104 3 119 19 15 17 35 20 141 23 112 3 126 5 147 26 22 20
34 22 134 22 83 0 115 4 132 16 33 23 29 66 -9 98 -29 25 -36 26 -153 26 -113
0 -126 -2 -152 -22z"/>
<path d="M3570 4570 c-29 -28 -30 -33 -30 -114 0 -82 1 -85 31 -110 25 -21 41
-26 85 -26 54 0 92 12 106 34 4 6 8 52 8 103 0 88 -1 93 -27 118 -23 21 -38
25 -85 25 -50 0 -61 -4 -88 -30z"/>
<path d="M8442 4482 c-38 -34 -40 -55 -7 -87 l24 -25 421 0 c407 0 421 1 440
20 29 29 25 64 -11 94 l-31 26 -402 0 -402 0 -32 -28z"/>
<path d="M11011 4474 c-17 -19 -28 -41 -25 -47 15 -26 40 -49 69 -63 16 -8 41
-21 55 -29 21 -12 103 -15 506 -15 472 0 482 0 508 21 34 26 33 58 -2 92 l-27
26 -465 3 -466 3 -28 23 c-44 34 -87 29 -125 -14z"/>
<path d="M6770 3666 c0 -7 -11 -25 -25 -40 -14 -15 -25 -33 -25 -40 0 -17 -39
-52 -68 -61 -13 -4 -82 -64 -153 -133 -79 -77 -146 -134 -172 -146 -28 -12
-87 -65 -175 -154 -116 -119 -132 -140 -127 -162 7 -32 40 -60 70 -60 13 0 37
11 53 25 17 14 38 25 48 25 11 0 83 63 163 140 121 118 149 140 175 140 27 0
81 29 131 71 11 9 36 19 56 22 35 5 90 36 138 77 16 13 38 20 66 20 26 0 52 7
66 19 13 10 35 22 49 26 49 15 150 120 150 156 0 10 -8 26 -18 36 -11 10 -22
26 -25 36 -9 23 -48 22 -54 -2 -6 -25 -148 -121 -178 -121 -13 0 -15 7 -10 33
5 25 2 37 -10 47 -10 8 -21 24 -26 37 -7 19 -16 23 -54 23 -31 0 -45 -4 -45
-14z"/>
<path d="M857 3542 c-15 -15 -27 -35 -27 -44 0 -31 34 -59 80 -65 25 -3 56
-14 69 -24 22 -18 51 -19 475 -19 485 0 479 -1 491 51 7 29 -20 63 -63 80 -13
5 -205 9 -426 9 -388 0 -404 1 -429 20 -19 15 -40 20 -84 20 -52 0 -63 -4 -86
-28z"/>
</g>
</svg>
