<?xml version="1.0" standalone="no"?>
<!DOCTYPE svg PUBLIC "-//W3C//DTD SVG 20010904//EN"
 "http://www.w3.org/TR/2001/REC-SVG-20010904/DTD/svg10.dtd">
<svg version="1.0" xmlns="http://www.w3.org/2000/svg"
 width="2282.000000pt" height="2156.000000pt" viewBox="0 0 2282.000000 2156.000000"
 preserveAspectRatio="xMidYMid meet">

<g transform="translate(0.000000,2156.000000) scale(0.100000,-0.100000)"
fill="#000000" stroke="none">
<path d="M6 21551 c-3 -5 -5 -4855 -3 -10778 l2 -10768 11408 -3 11407 -2 -2
10777 -3 10778 -11402 3 c-6774 1 -11404 -2 -11407 -7z m22765 -10741 c1
-5885 1 -10712 2 -10727 l1 -28 -11362 -3 -11362 -2 0 10730 0 10730 11360 0
11360 0 1 -10700z"/>
<path d="M4090 20219 c-603 -76 -1112 -329 -1518 -754 -375 -392 -601 -876
-667 -1421 -14 -116 -15 -847 -13 -7074 l3 -6945 22 -120 c101 -546 322 -976
697 -1350 411 -411 924 -657 1491 -715 81 -8 2024 -10 7380 -8 l7270 4 115 22
c533 104 947 315 1313 672 413 401 649 871 734 1460 17 120 18 426 18 7040 0
5586 -2 6933 -13 7010 -84 623 -340 1121 -790 1543 -366 342 -858 568 -1372
632 -111 13 -907 15 -7365 14 -3982 -1 -7269 -5 -7305 -10z m14740 -225 c543
-87 1055 -387 1400 -820 288 -361 452 -780 490 -1248 7 -88 10 -2336 9 -6935
-1 -5546 -4 -6828 -14 -6926 -42 -376 -161 -706 -370 -1020 -369 -555 -955
-914 -1625 -995 -87 -10 -14498 -14 -14590 -4 -689 78 -1291 445 -1662 1014
-166 254 -271 513 -336 829 l-26 126 -6 6900 c-3 3795 -2 6947 3 7005 39 545
271 1053 657 1440 329 329 734 540 1210 633 l115 22 7220 5 c3971 3 7267 2
7325 -3 58 -4 148 -14 200 -23z"/>
<path d="M16691 18154 c-107 -22 -210 -61 -356 -133 -384 -187 -806 -487
-1384 -980 -325 -279 -517 -421 -794 -588 -1233 -747 -2652 -828 -4227 -241
-310 116 -551 223 -1022 455 l-417 206 -51 96 c-201 383 -433 643 -634 713
-204 70 -398 -74 -473 -352 -26 -94 -25 -324 1 -400 49 -144 125 -237 231
-281 30 -12 55 -27 55 -31 0 -5 -24 -106 -54 -226 -151 -602 -196 -822 -196
-965 0 -56 -7 -187 -14 -292 -8 -104 -17 -242 -21 -305 -3 -63 -7 -149 -10
-190 -2 -41 -7 -129 -10 -195 -3 -66 -8 -163 -10 -215 -3 -52 -7 -162 -10
-245 -3 -82 -7 -193 -10 -245 -3 -52 -7 -183 -10 -290 -3 -107 -7 -249 -10
-315 -3 -66 -7 -210 -10 -320 -3 -110 -7 -276 -10 -370 -3 -93 -7 -255 -10
-360 -3 -104 -7 -255 -10 -335 -3 -80 -7 -246 -10 -370 -3 -124 -7 -292 -10
-375 -10 -335 -15 -498 -20 -665 -3 -96 -7 -227 -10 -290 -3 -63 -7 -196 -10
-295 -3 -99 -7 -225 -10 -280 -3 -55 -7 -163 -10 -240 -8 -212 -23 -522 -30
-635 -2 -41 -7 -124 -10 -185 -3 -60 -8 -141 -10 -180 -52 -754 -83 -1049
-150 -1405 -28 -151 -33 -260 -12 -260 29 0 76 64 217 300 206 344 295 433
347 353 16 -24 18 -52 17 -238 0 -167 -6 -252 -27 -415 -34 -258 -101 -665
-167 -1013 -27 -147 -50 -271 -50 -276 0 -16 141 -35 255 -35 215 -1 312 67
359 249 14 56 40 263 71 575 22 222 42 524 50 770 3 96 8 184 10 195 17 90 26
2516 11 2979 l-5 158 74 -6 c172 -15 622 -68 770 -92 392 -61 591 -112 1157
-300 422 -140 732 -234 770 -234 10 0 18 -4 18 -8 0 -4 -44 -46 -97 -92 -286
-249 -413 -408 -673 -839 -348 -578 -439 -1006 -223 -1046 51 -9 110 -45 191
-114 183 -157 305 -224 487 -265 101 -24 168 -28 418 -30 275 -2 305 -8 467
-92 200 -103 390 -293 556 -554 31 -50 59 -89 61 -86 2 2 -3 28 -11 57 -18 61
-20 95 -6 104 38 24 238 -152 361 -317 138 -186 200 -320 207 -444 5 -89 -5
-120 -55 -165 -28 -26 -356 -215 -923 -533 -41 -24 -102 -48 -135 -55 -33 -7
-184 -43 -335 -81 -908 -226 -1472 -447 -1689 -661 -55 -54 -90 -116 -91 -157
0 -27 -13 -33 -145 -68 -188 -49 -680 -193 -796 -233 -224 -77 -368 -158 -405
-227 -17 -31 -17 -37 -4 -62 8 -15 38 -38 65 -52 42 -21 64 -25 145 -25 162 0
240 47 240 146 0 27 2 49 4 49 1 0 48 -44 102 -98 134 -133 222 -174 369 -174
149 1 304 62 479 189 l59 43 32 -85 c72 -191 151 -242 283 -180 29 13 133 79
230 145 l178 121 81 -20 c358 -92 552 -122 813 -126 312 -6 487 20 764 112
840 279 1533 1104 1790 2128 99 396 113 823 37 1156 -89 393 -327 699 -641
826 -189 76 -442 102 -685 69 -138 -19 -372 -73 -386 -90 -5 -6 -19 -26 -32
-45 -36 -56 -70 -75 -130 -74 -96 1 -183 56 -231 143 -58 107 -24 215 92 292
23 16 23 16 -69 77 -200 132 -376 206 -563 236 l-38 6 88 58 c129 83 162 112
458 390 281 265 558 496 604 505 15 3 180 35 367 71 187 36 370 72 407 79 l67
13 223 -99 c280 -125 369 -160 536 -209 313 -91 653 -142 962 -143 223 -1 316
12 394 57 117 66 103 182 -43 339 -37 40 -83 102 -103 138 -61 110 -132 202
-244 320 -377 393 -804 611 -1312 671 -140 17 -478 6 -625 -20 -213 -38 -416
-95 -625 -178 -63 -24 -115 -43 -116 -41 -1 2 -14 35 -30 73 -55 139 -164 268
-299 358 -83 55 -286 150 -397 186 -244 79 -485 106 -1035 116 -452 8 -623 19
-825 51 -371 58 -643 185 -855 398 -230 230 -382 578 -452 1033 -27 173 -24
613 5 803 46 301 123 554 238 781 162 320 357 537 565 633 119 54 196 70 344
70 238 0 455 -60 1005 -279 162 -65 363 -142 445 -172 322 -116 673 -203 960
-237 153 -18 544 -18 690 -1 574 69 1119 283 1695 664 474 314 1191 922 1781
1511 457 456 702 742 925 1080 318 482 343 798 64 806 -36 1 -94 -4 -129 -12z"/>
</g>
</svg>
